Simulation
nRows=16
nColumns=15
endheader
time  TH_x TH_y TH_z SC_y  SC_z  SC_x  AC_y  AC_z  AC_x  GH_y  GH_z  GH_yy  EL_x  PS_y
0.0  0.000000  0.000000  0.000000  -40.97484877243665  6.293857566463187  5.290427962726946  39.8094265218859  -1.2526270376026962  -6.352828085565097  77.64418552330308  6.9166343582428755  -48.15628106622137  22.574968894668338  120.000000
0.05745  0.000000  0.000000  0.000000  -39.51004889564885  4.858302950227978  3.7874479560545935  40.707047888713156  -1.439457527145733  -5.352409353077394  42.910419441066566  7.567476353187027  -15.925920194827341  22.018044985459515  120.000000
0.1149  0.000000  0.000000  0.000000  -38.09345716547039  3.275127307691719  2.1261991574261354  41.673726366817924  -1.7677133269301646  -4.25677611106557  20.162736612954653  9.993351786245858  4.329273649494209  21.633249908778204  120.000000
0.17235  0.000000  0.000000  0.000000  -36.78570254043978  1.6307709195609865  0.30198551030953436  42.69610769937514  -2.1504325533519317  -2.973410239020647  7.1536825455141395  13.173931107487284  14.831651834304562  21.50145915053768  120.000000
0.2298  0.000000  0.000000  0.000000  -35.63009062370411  -0.011354932313390752  -1.663866238414487  43.78660391932311  -2.4625915321294642  -1.4416305841967885  -0.9363298688046351  16.716080373523184  20.391429704480814  21.628627754811482  120.000000
0.28725  0.000000  0.000000  0.000000  -34.654211642570246  -1.5728714585561738  -3.7413385930210206  44.953182859478794  -2.576760153109218  0.34321517481748715  -6.434255589256631  20.51880908073601  23.341015054204718  21.95707529175101  120.000000
0.3447  0.000000  0.000000  0.000000  -33.89742016794599  -2.96215704107953  -5.868239688576841  46.171810831192154  -2.403402701067184  2.314918089030924  -10.36112349297914  24.542733654172512  24.723217705314365  22.392669611160482  120.000000
0.40215  0.000000  0.000000  0.000000  -33.418320127900856  -4.097249807582139  -7.965554465865944  47.38985840145903  -1.8953802377957483  4.363215696541925  -13.214602246764585  28.73309006904415  25.070659980296337  22.82409876130207  120.000000
0.4596  0.000000  0.000000  0.000000  -33.27828244559969  -4.8964399574667485  -9.959143528646326  48.556528454259926  -1.0432446516037952  6.382142435104609  -15.270949240599657  32.99889469621024  24.70741205309133  23.156544300725404  120.000000
0.51705  0.000000  0.000000  0.000000  -33.52921477604057  -5.286871805255807  -11.769151721717128  49.63713076779447  0.12767916648875968  8.2985524877614  -16.709821897856752  37.222803091091315  23.865287672289554  23.32693065097819  120.000000
0.5745  0.000000  0.000000  0.000000  -34.19897803941238  -5.228789028061957  -13.326524987167618  50.63136948725686  1.581390357221192  10.080253545884265  -17.656755869159877  41.28317377093386  22.71517248256649  23.311017828702592  120.000000
0.63195  0.000000  0.000000  0.000000  -35.287829391520425  -4.73174560054349  -14.606177258268106  51.56838512163917  3.3017839722365467  11.74862794094446  -18.185804549209443  45.067446185085885  21.357231031824185  23.119824425768364  120.000000
0.6894  0.000000  0.000000  0.000000  -36.74972138689355  -3.8560910103664603  -15.592976174187983  52.48610088827674  5.274375776770555  13.33567718697988  -18.339046126803748  48.475550627111126  19.827748418465447  22.79008961339151  120.000000
0.74685  0.000000  0.000000  0.000000  -38.4647069325927  -2.7020642172501397  -16.238894464034544  53.40834553520319  7.467900977522652  14.833670068009775  -18.18247338743785  51.41849158552322  18.136104812256367  22.36293658245564  120.000000
0.8043  0.000000  0.000000  0.000000  -40.25485296224811  -1.3862195061892364  -16.481158158377163  54.3306250531388  9.835948243645383  16.202431657215627  -17.82535904094445  53.81960293517309  16.291865130876857  21.873170075565202  120.000000
0.86175  0.000000  0.000000  0.000000  -41.9462196338853  -0.01102696652439962  -16.264737451822384  55.230816821824924  12.301697264117676  17.389432522918167  -17.37960447015646  55.642388383127006  14.302607516022471  21.352353541260847  120.000000
